<svg xmlns="http://www.w3.org/2000/svg" xmlns:xlink="http://www.w3.org/1999/xlink" viewBox="0 0 177.34 69.7"><defs><clipPath id="a"><rect x="8.42" y="6.6" width="160.49" height="56.5" style="fill:none"/></clipPath><clipPath id="b"><rect x="8.42" y="6.61" width="160.49" height="50.64" style="fill:none"/></clipPath></defs><title>BG-Logo Positiv</title><g style="clip-path:url(#a)"><path d="M57,6.6c-4.28,5.35-.93,8.23,3.23,11.25a32.56,32.56,0,0,1,6.58,5.65,10.17,10.17,0,0,1,2.63,7.32,13.29,13.29,0,0,1-2.18,6.46,10.47,10.47,0,0,1-5.23,4.27c-2,.86-4.34.93-7.11.93H45V34h8.8c1.84,0,3.54-.44,4.33-1.37a3.51,3.51,0,0,0,.78-2.45c0-1.05-.77-1.84-1.84-2.76-1.92-1.62-6-4.56-8.83-7.4A9.44,9.44,0,0,1,45,13,8.67,8.67,0,0,1,47.48,6.6Z" style="fill:#e20613"/><rect x="33.8" y="6.6" width="9.86" height="8.81" style="fill:#1d1d1b"/><rect x="33.8" y="20.27" width="9.86" height="22.21" style="fill:#e20613"/><path d="M32.6,6.6v8.81H29.93a20.65,20.65,0,0,0-4.51.29c-4,.89-6.52,4.89-6.52,8.88a9.47,9.47,0,0,0,8,9.08,22,22,0,0,0,3.35.2H32.6v8.62h-5A20.71,20.71,0,0,1,16.93,40a17.26,17.26,0,0,1-7.41-9.16,18,18,0,0,1-1.1-6.17,18.51,18.51,0,0,1,1.84-8,17.65,17.65,0,0,1,3.68-5.2,16.13,16.13,0,0,1,7.94-4.23A28.39,28.39,0,0,1,28,6.6Z" style="fill:#e20613"/></g><g style="clip-path:url(#b)"><path d="M65.77,8.5c.6,0,.87.17.87.58s-.27.54-.85.54h-.54V8.5Zm.12-.41H64.61v3.38h.64V10h.63l.69,1.44h.71l-.75-1.54A.88.88,0,0,0,67.3,9q0-.93-1.41-.93M68.4,9.86a2.46,2.46,0,0,1-.75,1.8,2.64,2.64,0,0,1-1.86.77A2.53,2.53,0,0,1,64,11.66a2.59,2.59,0,0,1-.77-1.82A2.68,2.68,0,0,1,64,8a2.61,2.61,0,0,1,3.67,0,2.57,2.57,0,0,1,.73,1.85m-2.6-3a2.84,2.84,0,0,0-2.07.85,3.06,3.06,0,0,0-.91,2.14,3,3,0,0,0,3,3,3.06,3.06,0,0,0,2.13-.89,2.85,2.85,0,0,0,.87-2.1,3,3,0,0,0-3-3" style="fill:#1d1d1b"/><path d="M167.88,57.14h1V55.76h-1Zm-2.2-6.68a1.75,1.75,0,0,0-.85-.42,5.75,5.75,0,0,0-1.12-.11,2.73,2.73,0,0,0-2.14.69A4.73,4.73,0,0,0,161,53.5a14.26,14.26,0,0,0,.11,1.74,2.92,2.92,0,0,0,.42,1.26c.32.48,1.07.72,2.24.72a3,3,0,0,0,2-.49,1.47,1.47,0,0,0,.42-.72,4.56,4.56,0,0,0,.09-1h-.92a1.84,1.84,0,0,1-.22,1.08c-.17.2-.63.29-1.36.29l-.75,0a1.24,1.24,0,0,1-.62-.17,1.18,1.18,0,0,1-.46-.82,9.08,9.08,0,0,1,0-1v-.52h4.37V52.58a3,3,0,0,0-.62-2.12m-3.75,2.48a6.77,6.77,0,0,1,.08-1,2,2,0,0,1,.23-.71,1.78,1.78,0,0,1,1.38-.42h.18a3.62,3.62,0,0,1,.79.07,1,1,0,0,1,.71.88,7.48,7.48,0,0,1,.06,1.19Zm-2.23-.6a4.49,4.49,0,0,0-.09-1,1.69,1.69,0,0,0-.51-.93,2.68,2.68,0,0,0-1.79-.48,5.32,5.32,0,0,0-1.22.1,1.85,1.85,0,0,0-1.45,1.67,13.17,13.17,0,0,0-.1,2,12.35,12.35,0,0,0,.1,1.86,2.06,2.06,0,0,0,.45,1.06,1.76,1.76,0,0,0,.85.53,4.39,4.39,0,0,0,1.22.14,4.65,4.65,0,0,0,1.27-.16,1.76,1.76,0,0,0,.86-.45,2.52,2.52,0,0,0,.49-1.75v-.31h-.9v.22a2,2,0,0,1-.25,1.23.9.9,0,0,1-.64.29c-.06,0-.31,0-.74,0a4,4,0,0,1-.85-.07,1.08,1.08,0,0,1-.86-1,6.5,6.5,0,0,1-.08-1V52.92a6.35,6.35,0,0,1,.08-1.05,1.58,1.58,0,0,1,.25-.65,1.31,1.31,0,0,1,.7-.41h.76a1.86,1.86,0,0,1,1.22.28,1.49,1.49,0,0,1,.3,1.1v.16ZM148.93,50H148v7.13h.9V52.89c0-1.19.32-1.86,1-2a3.7,3.7,0,0,1,.87-.07,1.68,1.68,0,0,1,1.16.3,1.76,1.76,0,0,1,.3,1.22v4.82h.92V52.3a2.53,2.53,0,0,0-.54-1.84,2.59,2.59,0,0,0-1.85-.53c-1,0-1.57.32-1.82,1Zm-3,.45a1.67,1.67,0,0,0-.84-.42,5.83,5.83,0,0,0-1.12-.11,2.72,2.72,0,0,0-2.14.69,4.73,4.73,0,0,0-.59,2.88,12.51,12.51,0,0,0,.11,1.74,2.92,2.92,0,0,0,.42,1.26c.32.48,1.07.72,2.24.72a3,3,0,0,0,2-.49,1.47,1.47,0,0,0,.42-.72,4.56,4.56,0,0,0,.09-1h-.92a1.84,1.84,0,0,1-.22,1.08c-.17.2-.63.29-1.36.29l-.76,0a1.2,1.2,0,0,1-.61-.17,1.14,1.14,0,0,1-.46-.82,7,7,0,0,1,0-1v-.52h4.37V52.58a2.92,2.92,0,0,0-.63-2.12m-3.74,2.48a6.77,6.77,0,0,1,.08-1,2,2,0,0,1,.23-.71,1.76,1.76,0,0,1,1.37-.42h.19a3.62,3.62,0,0,1,.79.07,1,1,0,0,1,.71.88,7.48,7.48,0,0,1,.06,1.19Zm-4.18-2a1,1,0,0,1,.6.52,5.25,5.25,0,0,1,.3,2.17,11.63,11.63,0,0,1,0,1.33,2.5,2.5,0,0,1-.29.9c-.2.35-.63.52-1.3.52a1.65,1.65,0,0,1-1.4-.47,1.8,1.8,0,0,1-.31-.83,8.61,8.61,0,0,1-.07-1.29V53.5c.05-.91.07-1.39.08-1.45a2.37,2.37,0,0,1,.22-.72,1,1,0,0,1,.64-.48,3.93,3.93,0,0,1,.73-.05,2.77,2.77,0,0,1,.85.12m.88,0c-.23-.65-.88-1-2-1a2.15,2.15,0,0,0-1.78.7,2.36,2.36,0,0,0-.49,1.1,9.2,9.2,0,0,0-.12,1.59,1.9,1.9,0,0,1,0,.37,8.49,8.49,0,0,0,.16,1.92,2.34,2.34,0,0,0,.46,1,2.27,2.27,0,0,0,1.78.62,1.93,1.93,0,0,0,1.94-1v.89h.9V47H139Zm-6.67,6.23h.92V50h-.92Zm0-9h.92V47h-.92Zm-1.41-1.28h-.35a1.85,1.85,0,0,0-1.37.47,1.42,1.42,0,0,0-.32.64,4.2,4.2,0,0,0-.11,1V50h-.91v.87h.91v6.25h.9V50.89h1.63V50H129.6V48.9a1.3,1.3,0,0,1,.29-1,1.4,1.4,0,0,1,.76-.15h.15l.2,0h.21v-.88l-.36,0M122.56,50h-.9v7.13h.9V52.89c0-1.19.32-1.86,1-2a3.8,3.8,0,0,1,.88-.07,1.67,1.67,0,0,1,1.15.3,1.76,1.76,0,0,1,.3,1.22v4.82h.92V52.3a2.58,2.58,0,0,0-.53-1.84,2.63,2.63,0,0,0-1.86-.53c-1,0-1.57.32-1.82,1Zm-6.36.05a1.91,1.91,0,0,0-1.28,1.87,17.81,17.81,0,0,0-.09,1.9,11,11,0,0,0,.11,1.49,2,2,0,0,0,1,1.68,3.44,3.44,0,0,0,1.46.22,9.85,9.85,0,0,0,1.16,0,1.81,1.81,0,0,0,1-.48,2.45,2.45,0,0,0,.56-1.38,14.64,14.64,0,0,0,.07-1.65c0-.45,0-.89,0-1.31a3.3,3.3,0,0,0-.52-1.81A1.65,1.65,0,0,0,118.6,50a8.39,8.39,0,0,0-1.23-.06,4.1,4.1,0,0,0-1.17.13M119,51.24a2.32,2.32,0,0,1,.26,1c0,.2,0,.63,0,1.31v.53a9,9,0,0,1-.06,1.12A1.72,1.72,0,0,1,119,56a.94.94,0,0,1-.66.37,4.92,4.92,0,0,1-.76,0,4.11,4.11,0,0,1-.87-.07.94.94,0,0,1-.65-.4,4.59,4.59,0,0,1-.28-2,3.12,3.12,0,0,0,0-.37v-.15a1,1,0,0,0,0-.17,8.13,8.13,0,0,1,.08-1.25,1.44,1.44,0,0,1,.39-.93,1.53,1.53,0,0,1,1-.26h.3c.78,0,1.27.14,1.47.44m-5.45,1.1a4.57,4.57,0,0,0-.08-1,1.7,1.7,0,0,0-.52-.93,2.66,2.66,0,0,0-1.79-.48,5.37,5.37,0,0,0-1.22.1,1.86,1.86,0,0,0-1.45,1.67,14.73,14.73,0,0,0-.1,2,13.86,13.86,0,0,0,.1,1.86,2.06,2.06,0,0,0,.45,1.06,1.76,1.76,0,0,0,.85.53,4.52,4.52,0,0,0,1.23.14,4.65,4.65,0,0,0,1.27-.16,1.72,1.72,0,0,0,.85-.45,2.52,2.52,0,0,0,.49-1.75v-.31h-.89v.22a2,2,0,0,1-.26,1.23.87.87,0,0,1-.63.29c-.07,0-.31,0-.74,0a4,4,0,0,1-.85-.07,1.07,1.07,0,0,1-.86-1,5.44,5.44,0,0,1-.08-1V52.92a5.42,5.42,0,0,1,.08-1.05,1.45,1.45,0,0,1,.25-.65,1.27,1.27,0,0,1,.7-.41h.76a1.88,1.88,0,0,1,1.22.28,1.49,1.49,0,0,1,.3,1.1v.16ZM99.18,51.25a1.88,1.88,0,0,1,1.4-.45,2,2,0,0,1,1.23.31,1,1,0,0,1,.24.46,3.77,3.77,0,0,1,.06.75v4.82H103V52.36a2.76,2.76,0,0,0-.51-1.88,2.33,2.33,0,0,0-1.77-.55,3.29,3.29,0,0,0-1.09.15,1.4,1.4,0,0,0-.84.81V47h-.89V57.14h.89V52.85a2.76,2.76,0,0,1,.36-1.6M93.75,56.8a1.69,1.69,0,0,0,1.35.43,1.59,1.59,0,0,0,1.46-.65A3.13,3.13,0,0,0,96.87,55v-.36H96v.55a3,3,0,0,1-.07.73c-.1.32-.37.47-.83.47a1.1,1.1,0,0,1-.61-.17,1.5,1.5,0,0,1-.19-.94V50.89h2.33V50H94.32V48.29h-.93V50H92.6v.87h.79V55a3,3,0,0,0,.36,1.81m-3.11.34h.93V50h-.93Zm0-9h.93V47h-.93Zm-1,1.86h-.94L87.23,56.4,85.92,50H84.6l-1.34,6.36L81.88,50H81l1.63,7.12h1.36l1.32-6.35,1.28,6.35,1.33,0ZM73.81,56.8a1.68,1.68,0,0,0,1.34.43,1.6,1.6,0,0,0,1.47-.65A3.23,3.23,0,0,0,76.93,55v-.36h-.86v.55a3.12,3.12,0,0,1-.06.73c-.1.32-.38.47-.83.47a1.1,1.1,0,0,1-.61-.17,1.5,1.5,0,0,1-.19-.94V50.89h2.33V50H74.38V48.29h-.93V50h-.8v.87h.8V55a3,3,0,0,0,.36,1.81m-2-4.46a4.49,4.49,0,0,0-.09-1,1.69,1.69,0,0,0-.51-.93,2.68,2.68,0,0,0-1.79-.48,5.32,5.32,0,0,0-1.22.1,1.85,1.85,0,0,0-1.45,1.67,13.17,13.17,0,0,0-.1,2,12.35,12.35,0,0,0,.1,1.86,2.06,2.06,0,0,0,.45,1.06,1.76,1.76,0,0,0,.85.53,4.39,4.39,0,0,0,1.22.14,4.65,4.65,0,0,0,1.27-.16,1.71,1.71,0,0,0,.86-.45,2.52,2.52,0,0,0,.49-1.75v-.31H71v.22A2,2,0,0,1,70.75,56a.9.9,0,0,1-.64.29c-.06,0-.31,0-.74,0a4,4,0,0,1-.85-.07,1.08,1.08,0,0,1-.86-1,5.43,5.43,0,0,1-.07-1V52.92a5.4,5.4,0,0,1,.07-1.05,1.58,1.58,0,0,1,.25-.65,1.31,1.31,0,0,1,.7-.41h.76a1.86,1.86,0,0,1,1.22.28,1.49,1.49,0,0,1,.3,1.1v.16Zm-7-1.88a1.75,1.75,0,0,0-.85-.42,5.75,5.75,0,0,0-1.12-.11,2.73,2.73,0,0,0-2.14.69,4.8,4.8,0,0,0-.59,2.88,12.51,12.51,0,0,0,.11,1.74,2.92,2.92,0,0,0,.42,1.26c.33.48,1.07.72,2.24.72a3,3,0,0,0,2-.49,1.47,1.47,0,0,0,.42-.72,4.56,4.56,0,0,0,.09-1h-.92a1.77,1.77,0,0,1-.22,1.08c-.17.2-.63.29-1.36.29l-.75,0a1.24,1.24,0,0,1-.62-.17,1.18,1.18,0,0,1-.46-.82,9.08,9.08,0,0,1,0-1v-.52h4.37V52.58a3,3,0,0,0-.62-2.12M61,52.94a6.77,6.77,0,0,1,.08-1,2,2,0,0,1,.23-.71,1.78,1.78,0,0,1,1.38-.42h.18a3.62,3.62,0,0,1,.79.07,1,1,0,0,1,.71.88,7.48,7.48,0,0,1,.06,1.19ZM54.47,50h-.89v7.13h.89V52.89c0-1.19.32-1.86,1-2a3.65,3.65,0,0,1,.87-.07,1.65,1.65,0,0,1,1.15.3,1.76,1.76,0,0,1,.31,1.22v4.82h.91V52.3a2,2,0,0,0-2.39-2.37,1.74,1.74,0,0,0-1.82,1Zm-6.69,0h-.89v7.13h.89V52.89c0-1.19.32-1.86,1-2a3.65,3.65,0,0,1,.87-.07,1.65,1.65,0,0,1,1.15.3,1.76,1.76,0,0,1,.3,1.22v4.82H52V52.3a2.58,2.58,0,0,0-.53-1.84,2.62,2.62,0,0,0-1.86-.53,1.74,1.74,0,0,0-1.82,1Zm-6.36.05a1.91,1.91,0,0,0-1.28,1.87,17.81,17.81,0,0,0-.09,1.9,9.64,9.64,0,0,0,.12,1.49,2,2,0,0,0,1,1.68,3.46,3.46,0,0,0,1.47.22,9.77,9.77,0,0,0,1.15,0,1.84,1.84,0,0,0,1-.48,2.52,2.52,0,0,0,.55-1.38,12.54,12.54,0,0,0,.07-1.65c0-.45,0-.89,0-1.31a3.22,3.22,0,0,0-.52-1.81A1.65,1.65,0,0,0,43.82,50a8.2,8.2,0,0,0-1.23-.06,4.1,4.1,0,0,0-1.17.13m2.79,1.18a2.19,2.19,0,0,1,.26,1c0,.2,0,.63,0,1.31v.53a8.81,8.81,0,0,1-.07,1.12,1.89,1.89,0,0,1-.23.74,1,1,0,0,1-.67.37,4.84,4.84,0,0,1-.76,0,4.11,4.11,0,0,1-.87-.07.94.94,0,0,1-.65-.4,4.59,4.59,0,0,1-.28-2,1.7,1.7,0,0,0,0-.37v-.15a.51.51,0,0,0,0-.17A9.61,9.61,0,0,1,41.06,52a1.44,1.44,0,0,1,.39-.93,1.53,1.53,0,0,1,1-.26h.3c.78,0,1.28.14,1.47.44m-5.44,1.1a4.49,4.49,0,0,0-.09-1,1.64,1.64,0,0,0-.52-.93,2.65,2.65,0,0,0-1.79-.48,5.37,5.37,0,0,0-1.22.1A1.86,1.86,0,0,0,33.7,51.7a14.73,14.73,0,0,0-.1,2,13.86,13.86,0,0,0,.1,1.86,2.07,2.07,0,0,0,.46,1.06,1.73,1.73,0,0,0,.84.53,4.52,4.52,0,0,0,1.23.14,4.65,4.65,0,0,0,1.27-.16,1.76,1.76,0,0,0,.86-.45,2.58,2.58,0,0,0,.49-1.75v-.31H38v.22A2,2,0,0,1,37.69,56a.87.87,0,0,1-.63.29c-.06,0-.31,0-.74,0a4,4,0,0,1-.85-.07,1.07,1.07,0,0,1-.86-1,5.44,5.44,0,0,1-.08-1V52.92a5.42,5.42,0,0,1,.08-1.05,1.45,1.45,0,0,1,.25-.65,1.27,1.27,0,0,1,.7-.41h.76a1.86,1.86,0,0,1,1.22.28,1.49,1.49,0,0,1,.3,1.1v.16Z" style="fill:#93a1ac"/></g></svg>